<svg width="214" height="108" xmlns="http://www.w3.org/2000/svg" xmlns:xlink="http://www.w3.org/1999/xlink"><defs><path id="a" d="M21.277 18.36H.427V.28h20.85z"/><path id="c" d="M.03.092h30.602v31.894H.03V.092z"/></defs><g fill="none" fill-rule="evenodd"><rect fill="#FF7300" width="214" height="108" rx="4"/><g transform="translate(48.883 69.12)"><mask id="b" fill="#fff"><use xlink:href="#a"/></mask><path d="M2.015 7.733l12.18 9.675c1.851 1.471 4.582 1.208 6.1-.587 1.518-1.795 1.247-4.442-.605-5.914L7.51 1.233C5.66-.238 2.928.024 1.41 1.819-.108 3.615.163 6.262 2.015 7.733" fill="#134F70" mask="url(#b)"/></g><path d="M71.75 55.08H55.346c-2.37 0-4.291 1.934-4.291 4.32s1.921 4.32 4.291 4.32H71.75c2.37 0 4.292-1.934 4.292-4.32s-1.922-4.32-4.292-4.32" fill="#134F70"/><path d="M37.63 66.943l-12.197 9.674c-1.789 1.42-2.052 3.975-.589 5.71 1.464 1.734 4.1 1.989 5.889.57l12.196-9.675c1.788-1.418 2.052-3.974.589-5.709-1.464-1.734-4.1-1.99-5.889-.57m4.314-20.07L28.31 53.78c-2 1.013-2.811 3.478-1.813 5.507.998 2.029 3.428 2.853 5.427 1.84l13.632-6.907c2-1.013 2.811-3.478 1.813-5.507-.998-2.029-3.428-2.853-5.427-1.84m9.114-5.833c0 3.579 2.918 6.48 6.518 6.48 3.6 0 6.517-2.901 6.517-6.48 0-3.58-2.918-6.48-6.517-6.48-3.6 0-6.518 2.9-6.518 6.48m46.71-19.44h.002v.001z" fill="#FFF"/><g transform="translate(126.756 19.44)"><mask id="d" fill="#fff"><use xlink:href="#c"/></mask><path d="M23.207 12.408H8.415c.376-2.156 1.199-3.818 2.47-4.993 1.293-1.195 3.087-1.798 5.403-1.798 1.176 0 2.199.183 3.068.546.874.364 1.594.858 2.166 1.485a6.009 6.009 0 0 1 1.273 2.193c.266.804.401 1.66.412 2.567m6.413 4.543c.258-.097.469-.264.62-.492.153-.229.254-.533.31-.913.055-.378.082-.846.082-1.41 0-2.229-.359-4.216-1.078-5.96-.72-1.74-1.722-3.213-3.01-4.413-1.287-1.2-2.82-2.112-4.594-2.735-1.775-.624-3.717-.936-5.824-.936-2.499 0-4.745.402-6.737 1.207-1.99.804-3.68 1.896-5.062 3.276A14.19 14.19 0 0 0 1.14 9.437C.4 11.298.03 13.285.03 15.395c0 2.708.423 5.095 1.272 7.158.849 2.06 2.013 3.793 3.495 5.192 1.481 1.4 3.225 2.457 5.227 3.17 2.001.714 4.165 1.072 6.49 1.071 1.172 0 2.382-.08 3.629-.24a20.205 20.205 0 0 0 3.684-.83 17.41 17.41 0 0 0 3.475-1.567 13.182 13.182 0 0 0 3.008-2.433l.066-.072-2.398-2.771a1.941 1.941 0 0 0-.65-.536 1.968 1.968 0 0 0-.894-.192c-.519 0-1.05.146-1.592.433a57.76 57.76 0 0 1-1.845.927 16.23 16.23 0 0 1-2.447.922c-.926.276-2.034.416-3.323.416-2.617-.001-4.702-.731-6.278-2.189-1.551-1.432-2.458-3.683-2.708-6.76h20.43c.376 0 .691-.046.948-.143" fill="#FFF" mask="url(#d)"/></g><path d="M177.814 68.476H163.02c.376-2.156 1.199-3.818 2.47-4.993 1.293-1.195 3.087-1.798 5.403-1.798 1.176 0 2.2.183 3.069.546.873.364 1.593.858 2.165 1.485a6.016 6.016 0 0 1 1.273 2.193c.266.804.402 1.66.413 2.567m6.412 4.543c.258-.097.469-.264.62-.492.153-.229.254-.533.31-.913.055-.378.082-.846.082-1.41 0-2.229-.359-4.216-1.078-5.96-.72-1.74-1.722-3.213-3.01-4.413-1.287-1.2-2.82-2.111-4.594-2.735-1.775-.624-3.717-.936-5.824-.936-2.498 0-4.744.402-6.737 1.207-1.99.804-3.679 1.896-5.062 3.276a14.185 14.185 0 0 0-3.186 4.862c-.74 1.86-1.11 3.848-1.11 5.958 0 2.708.423 5.095 1.273 7.158.848 2.06 2.012 3.793 3.494 5.192 1.481 1.4 3.225 2.457 5.228 3.17 2 .714 4.164 1.071 6.489 1.071 1.172 0 2.382-.08 3.629-.24a20.27 20.27 0 0 0 3.684-.83 17.44 17.44 0 0 0 3.475-1.567 13.182 13.182 0 0 0 3.008-2.433l.067-.072-2.399-2.771a1.943 1.943 0 0 0-.65-.536 1.975 1.975 0 0 0-.894-.192c-.519 0-1.05.146-1.592.433-.529.28-1.143.588-1.845.927a16.23 16.23 0 0 1-2.447.922c-.926.276-2.034.415-3.323.415-2.617 0-4.702-.73-6.278-2.188-1.551-1.432-2.458-3.683-2.708-6.76h20.43c.376 0 .692-.046.948-.143M119.433 19.44c-.269 0-.504.008-.706.022-.226.017-.44.06-.64.132a1.602 1.602 0 0 0-.594.388 2.8 2.8 0 0 0-.44.609l-9.273 16.66c-.255.459-.492.936-.714 1.435-.062.138-.119.281-.18.42l-.164-.386a17.27 17.27 0 0 0-.704-1.426L96.657 20.59a2.626 2.626 0 0 0-.46-.618 1.71 1.71 0 0 0-.595-.378 2.385 2.385 0 0 0-.64-.132 9.988 9.988 0 0 0-.706-.022h-4.894v31.094h7.213v-18.88c0-.127-.003-.262-.006-.396l7.441 14.154a2.94 2.94 0 0 0 1.018 1.086c.43.268.933.397 1.47.396h.801a2.74 2.74 0 0 0 1.47-.396c.42-.26.765-.632 1.018-1.087l7.332-14.11c-.002.12-.005.24-.005.354v18.879h7.213V19.44h-4.894zm53.423 25.492h-5.805V24.938h5.805c1.54 0 2.907.234 4.108.69 1.207.458 2.216 1.107 3.047 1.952.832.846 1.476 1.88 1.935 3.121.457 1.236.69 2.644.69 4.234 0 1.59-.233 3-.69 4.234-.459 1.242-1.103 2.276-1.935 3.122-.832.846-1.84 1.494-3.047 1.953-1.2.456-2.567.688-4.108.688m15.833-16.25a14.272 14.272 0 0 0-3.496-4.91c-1.502-1.369-3.306-2.433-5.397-3.193-2.1-.762-4.416-1.139-6.94-1.139h-13.009v30.991h13.01c2.522 0 4.838-.374 6.937-1.129 2.092-.752 3.898-1.817 5.4-3.194a14.377 14.377 0 0 0 3.495-4.919c.83-1.906 1.241-3.996 1.24-6.254.001-2.257-.41-4.347-1.24-6.253m-91.217 53.12V57.024h-7.809v30.991h23.857v-6.213zm20.934-24.562v31.32h7.604V57.24zm35.848 6.094V57.24h-23.899v31.32h7.903V77.118h13.5V71h-13.5v-7.667z" fill="#FFF"/></g></svg>