<svg xmlns="http://www.w3.org/2000/svg" width="24" height="24" viewBox="0 0 24 24">
    <g fill="#134F70" fill-rule="evenodd" transform="translate(2 2)">
        <path d="M1 0h18a1 1 0 0 1 1 1v14a1 1 0 0 1-1 1H9l-4.513 3.61A.3.3 0 0 1 4 19.376V16H1a1 1 0 0 1-1-1V1a1 1 0 0 1 1-1zm.5 1a.5.5 0 0 0-.5.5v13a.5.5 0 0 0 .5.5H4a1 1 0 0 1 1 1v1.674a.15.15 0 0 0 .248.114l2.971-2.547A1 1 0 0 1 8.87 15H18.5a.5.5 0 0 0 .5-.5v-13a.5.5 0 0 0-.5-.5h-17z"/>
        <circle cx="9.5" cy="12" r="1"/>
        <path d="M10 7.5V10a.5.5 0 1 1-1 0V8.5a1 1 0 0 1 1-1z"/>
        <path d="M7.9 3.358A2.99 2.99 0 0 1 10 2.5a3 3 0 0 1 0 6v-1a2 2 0 1 0-1.376-3.451l-.725-.69z"/>
        <path d="M8.297 4.159c.306 0 .5-.224.5-.5a.5.5 0 0 0-1 0c0 .276.195.5.5.5z"/>
    </g>
</svg>
