<svg xmlns="http://www.w3.org/2000/svg" width="24" height="24" viewBox="0 0 24 24">
    <g fill="none" fill-rule="evenodd">
        <path d="M0 0h24v24H0z"/>
        <g fill="#134F70" fill-rule="nonzero">
            <path d="M9 15.6c-.2 0-.3-.1-.4-.2-.2-.2-.2-.6 0-.8l6-6c.1-.1.3-.2.4-.2.2 0 .3.1.4.2.1.1.2.3.2.4 0 .2-.1.3-.2.4l-6 6c-.1.1-.3.2-.4.2z"/>
            <path d="M12 20.8c-.6 0-1.2-.3-1.5-.8l-.4-.7c-.2-.2-.4-.3-.6-.3h-.2l-.7.3c-.2.1-.4.1-.7.1-.4 0-.8-.1-1.1-.3-.5-.4-.8-.9-.7-1.6v-.8c0-.3-.2-.6-.5-.7l-.8-.2c-.6-.2-1.1-.6-1.3-1.2-.2-.6-.1-1.2.3-1.7l.5-.6c.2-.2.2-.6 0-.8l-.4-.5c-.4-.5-.5-1.1-.3-1.7.2-.6.7-1 1.3-1.2l.8-.2c.3-.1.5-.4.5-.7v-.8c0-.6.2-1.2.7-1.6.3-.2.7-.3 1.1-.3.2 0 .4 0 .7.1l.7.3h.2c.2 0 .4-.1.6-.3l.3-.6c.3-.5.9-.8 1.5-.8s1.2.3 1.5.8l.4.7c.2.2.4.3.6.3h.2l.7-.3c.2-.1.4-.1.7-.1.4 0 .8.1 1.1.3.5.4.8.9.7 1.6v.8c0 .3.2.6.5.7l.8.2c.6.2 1.1.6 1.3 1.2.2.6.1 1.2-.3 1.7l-.5.6c-.2.2-.2.6 0 .8l.5.6c.4.5.5 1.1.3 1.7-.2.6-.7 1-1.3 1.2l-.8.2c-.3.1-.5.4-.5.7v.8c0 .6-.2 1.2-.7 1.6-.3.2-.7.3-1.1.3-.2 0-.4 0-.7-.1l-.7-.3h-.2c-.2 0-.4.1-.6.3l-.4.5c-.3.5-.9.8-1.5.8zm-2.5-2.9c.6 0 1.2.3 1.5.8l.4.7c.1.2.3.3.6.3s.4-.1.6-.3l.4-.7c.3-.5.9-.8 1.5-.8.2 0 .4 0 .6.1l.7.3h.2c.1 0 .3 0 .4-.1.2-.1.3-.3.3-.6v-.8c0-.9.5-1.6 1.3-1.8l.8-.2c.2-.1.4-.2.5-.4.1-.2 0-.4-.1-.6l-.5-.6c-.5-.7-.5-1.6 0-2.3l.5-.6c.1-.2.2-.4.1-.6-.1-.2-.2-.4-.5-.4l-.7-.3c-.8-.2-1.4-1-1.3-1.8v-.8c0-.2-.1-.4-.3-.6-.1-.1-.2-.1-.4-.1h-.2l-.8.3c-.2.1-.4.1-.6.1-.6 0-1.2-.3-1.5-.8l-.4-.7c-.1-.2-.3-.3-.6-.3-.2 0-.4.1-.6.3l-.4.7c-.3.5-.9.8-1.5.8-.2 0-.4 0-.6-.1l-.8-.3h-.2c-.1 0-.3 0-.4.1-.2.1-.3.4-.3.6v.8c.1.8-.4 1.6-1.3 1.8l-.7.2c-.2.1-.4.2-.5.4-.1.2 0 .4.1.6l.5.6c.5.7.5 1.6 0 2.3l-.5.6c-.1.2-.2.4-.1.6.1.2.2.4.5.4l.7.3c.8.2 1.4 1 1.3 1.8v.8c0 .2.1.4.3.6.1.1.2.1.4.1h.2l.8-.3c.2-.1.4-.1.6-.1z"/>
        </g>
        <path fill="#134F70" d="M9.8 11.6a1.8 1.8 0 1 1 0-3.6 1.8 1.8 0 0 1 0 3.6zm0-.9a.9.9 0 1 0 0-1.8.9.9 0 0 0 0 1.8zM14.8 15.6a1.8 1.8 0 1 1 0-3.6 1.8 1.8 0 0 1 0 3.6zm0-.9a.9.9 0 1 0 0-1.8.9.9 0 0 0 0 1.8z"/>
    </g>
</svg>
