<svg xmlns="http://www.w3.org/2000/svg" width="24" height="24" viewBox="0 0 24 24">
    <g fill="none" fill-rule="evenodd">
        <g fill="#134F70">
            <path d="M16.45 5.717a.5.5 0 0 0 .587-.809l-.588.81z"/>
            <path d="M3.439 15.653A9 9 0 0 1 17.037 4.908l-.588.81A8 8 0 0 0 5.275 7.486c-1.754 2.414-2.03 5.478-.879 8.014l-.957.152z"/>
            <path d="M17.115 5.583l-1.464.154a.5.5 0 1 0 .104.994l1.99-.209a.499.499 0 0 0 .362-.218.499.499 0 0 0 .096-.413l-.416-1.956a.5.5 0 1 0-.978.208l.306 1.44zM3.438 15.647c.066.23.275.46.543.426.267-.033.495-.3.415-.572l-.958.146z"/>
        </g>
        <path fill="#0B2C3E" d="M7.854 19.25a.5.5 0 0 0-.588.808l.588-.809z"/>
        <path fill="#134F70" d="M20.864 9.313A9 9 0 0 1 7.266 20.058l.588-.809a8 8 0 0 0 11.174-1.77c1.754-2.413 2.029-5.478.878-8.014l.958-.152z"/>
        <path fill="#134F70" d="M7.188 19.384l1.464-.154a.5.5 0 1 0-.104-.995l-1.99.21a.499.499 0 0 0-.362.218.499.499 0 0 0-.096.412l.416 1.957a.5.5 0 1 0 .978-.208l-.306-1.44zM20.864 9.32c-.066-.23-.274-.46-.542-.427-.268.034-.496.3-.416.572l.958-.146zM8.5 10.25H16a2.25 2.25 0 1 1 0 4.5H8.5a2.25 2.25 0 1 1 0-4.5zm0 1a1.25 1.25 0 0 0 0 2.5H16a1.25 1.25 0 0 0 0-2.5H8.5z"/>
        <path fill="#134F70" d="M12 11h1v3h-1z"/>
    </g>
</svg>
